<?xml version="1.0" encoding="UTF-8" standalone="no"?>
<svg
   version="1.1"
   viewBox="0.00 0.00 219.00 813.00"
   id="svg37"
   sodipodi:docname="explore.svg"
   inkscape:version="1.3.1 (91b66b0783, 2023-11-16)"
   xmlns:inkscape="http://www.inkscape.org/namespaces/inkscape"
   xmlns:sodipodi="http://sodipodi.sourceforge.net/DTD/sodipodi-0.dtd"
   xmlns="http://www.w3.org/2000/svg"
   xmlns:svg="http://www.w3.org/2000/svg">
  <defs
     id="defs37" />
  <sodipodi:namedview
     id="namedview37"
     pagecolor="#ffffff"
     bordercolor="#000000"
     borderopacity="0.25"
     inkscape:showpageshadow="2"
     inkscape:pageopacity="0.0"
     inkscape:pagecheckerboard="0"
     inkscape:deskcolor="#d1d1d1"
     inkscape:zoom="1.0098401"
     inkscape:cx="109.91839"
     inkscape:cy="406.5"
     inkscape:window-width="1920"
     inkscape:window-height="1017"
     inkscape:window-x="1912"
     inkscape:window-y="213"
     inkscape:window-maximized="1"
     inkscape:current-layer="svg37" />
  <path
     fill="#fabc05"
     d="   M 109.45 53.98   Q 109.52 55.25 109.13 54.82   Q 104.73 60.51 98.48 59.96   Q 91.56 59.35 88.78 52.12   L 88.53 51.11   Q 87.51 41.15 96.23 38.19   C 100.10 36.87 104.69 38.29 107.52 41.25   Q 112.42 46.37 109.45 53.98   Z"
     id="path22" />
  <path
     fill="#ffffff"
     d="   M 88.53 51.11   L 88.78 52.12   C 66.50 49.68 22.16 49.31 22.04 82.95   C 21.99 98.17 30.41 115.09 39.04 128.42   Q 50.58 146.23 65.61 163.38   Q 90.02 191.25 120.51 218.27   Q 167.47 259.89 219.00 296.04   L 219.00 297.86   L 218.72 297.26   A 1.71 1.71 0.0 0 0 218.12 296.55   Q 168.05 261.32 124.28 222.94   Q 94.14 196.50 69.53 169.30   Q 54.84 153.07 42.48 135.33   C 29.46 116.63 7.02 77.26 33.05 59.30   Q 38.51 55.54 45.17 53.56   C 58.88 49.47 74.37 49.63 88.53 51.11   Z"
     id="path23" />
  <path
     fill="#ffffff"
     d="   M 109.45 53.98   C 147.09 61.21 183.44 73.11 219.00 87.20   L 219.00 88.24   Q 197.38 79.63 175.26 72.24   Q 143.17 61.51 109.13 54.82   Q 109.52 55.25 109.45 53.98   Z"
     id="path25" />
  <path
     fill="#ffffff"
     d="   M 219.00 352.35   L 219.00 368.80   L 165.32 368.81   A 0.79 0.78 -0.0 0 1 164.53 368.03   L 164.53 324.50   A 0.72 0.72 0.0 0 1 165.25 323.78   L 175.50 323.79   Q 176.21 323.79 176.21 324.50   L 176.21 352.02   Q 176.21 352.37 176.56 352.37   L 193.00 352.37   A 0.37 0.37 0.0 0 0 193.37 352.00   L 193.38 329.25   Q 193.38 328.62 194.01 328.62   L 204.45 328.65   Q 205.00 328.65 205.00 329.20   L 205.00 351.76   Q 205.00 352.29 205.53 352.29   L 219.00 352.35   Z"
     id="path26" />
  <path
     fill="#ffffff"
     d="   M 219.00 392.58   L 219.00 409.50   Q 215.11 410.71 212.01 413.29   C 209.19 415.65 209.56 420.22 209.74 423.77   Q 209.76 424.30 210.29 424.31   L 219.00 424.36   L 219.00 440.80   L 165.29 440.81   A 0.73 0.73 0.0 0 1 164.56 440.08   Q 164.49 428.54 164.57 415.59   C 164.66 402.09 169.89 389.17 185.18 388.05   Q 199.46 387.01 205.55 399.56   A 0.31 0.31 0.0 0 0 206.03 399.66   C 209.92 396.46 214.56 394.81 219.00 392.58   Z   M 176.82 424.37   L 197.48 424.37   A 0.35 0.35 0.0 0 0 197.83 424.02   L 197.83 414.46   A 9.81 9.08 90.0 0 0 188.75 404.65   L 185.55 404.65   A 9.81 9.08 -90.0 0 0 176.47 414.46   L 176.47 424.02   A 0.35 0.35 0.0 0 0 176.82 424.37   Z"
     id="path27" />
  <path
     fill="#ffffff"
     d="   M 219.00 462.08   L 219.00 479.16   Q 214.52 476.90 207.47 476.21   C 197.60 475.25 178.27 474.60 175.99 486.42   C 173.84 497.61 180.64 501.76 190.77 503.23   Q 205.24 505.34 219.00 500.76   L 219.00 517.54   Q 203.14 522.79 186.77 519.14   C 174.98 516.51 166.09 508.40 164.14 496.22   C 162.09 483.40 165.65 470.84 177.18 464.20   C 189.40 457.17 206.68 457.78 219.00 462.08   Z"
     id="path30" />
  <path
     fill="#ffffff"
     d="   M 219.00 558.37   L 219.00 574.80   L 165.41 574.81   Q 164.53 574.81 164.53 573.94   L 164.54 559.04   A 0.67 0.66 -0.0 0 1 165.21 558.38   L 219.00 558.37   Z"
     id="path32" />
  <path
     fill="#ffffff"
     d="   M 219.00 629.35   L 219.00 645.80   L 165.30 645.81   A 0.73 0.73 0.0 0 1 164.57 645.09   Q 164.46 634.53 164.58 623.00   C 164.71 610.70 168.56 598.28 181.95 595.57   C 190.06 593.94 199.48 595.39 205.38 601.48   C 212.24 608.57 213.18 619.00 212.69 628.69   Q 212.66 629.28 213.24 629.29   L 219.00 629.35   Z   M 176.34 629.38   L 199.92 629.38   A 0.32 0.32 0.0 0 0 200.24 629.06   L 200.24 622.03   A 10.37 10.10 -90.0 0 0 190.14 611.66   L 186.12 611.66   A 10.37 10.10 90.0 0 0 176.02 622.03   L 176.02 629.06   A 0.32 0.32 0.0 0 0 176.34 629.38   Z"
     id="path33" />
  <path
     fill="#ffffff"
     d="   M 219.00 665.61   L 219.00 683.11   L 208.99 690.29   Q 208.55 690.59 208.94 690.96   Q 213.50 695.18 219.00 698.26   L 219.00 715.81   Q 207.80 709.73 198.61 700.51   Q 198.19 700.08 197.74 700.49   C 187.91 709.57 178.46 716.95 165.21 719.51   A 0.56 0.56 0.0 0 1 164.54 718.96   L 164.53 703.51   A 0.50 0.49 84.4 0 1 164.92 703.02   Q 177.31 700.31 187.63 691.08   Q 188.06 690.68 187.62 690.30   Q 176.91 680.95 165.17 678.49   Q 164.53 678.36 164.53 677.70   L 164.54 662.48   A 0.57 0.57 0.0 0 1 165.22 661.92   C 178.36 664.40 188.41 672.18 197.81 680.99   A 0.60 0.60 0.0 0 0 198.65 680.97   Q 207.62 671.73 219.00 665.61   Z"
     id="path35" />
  <path
     fill="#ffffff"
     d="   M 219.00 762.35   L 219.00 778.80   L 165.32 778.81   A 0.79 0.78 0.0 0 1 164.53 778.03   L 164.53 734.50   A 0.72 0.71 -0.0 0 1 165.25 733.79   L 175.75 733.79   A 0.46 0.46 0.0 0 1 176.21 734.25   L 176.21 762.02   Q 176.21 762.37 176.56 762.37   L 192.99 762.38   A 0.38 0.38 0.0 0 0 193.37 762.00   L 193.38 739.25   Q 193.38 738.62 194.00 738.62   L 204.45 738.66   A 0.55 0.54 -0.0 0 1 205.00 739.20   L 205.00 761.76   Q 205.00 762.29 205.53 762.29   L 219.00 762.35   Z"
     id="path37" />
</svg>
