<?xml version="1.0" encoding="utf-8"?>
<!-- Generator: Adobe Illustrator 22.0.0, SVG Export Plug-In . SVG Version: 6.00 Build 0)  -->
<svg version="1.1" id="Layer_1" xmlns="http://www.w3.org/2000/svg" xmlns:xlink="http://www.w3.org/1999/xlink" x="0px" y="0px"
	 viewBox="0 0 251 248.4" style="enable-background:new 0 0 251 248.4;" xml:space="preserve">
<style type="text/css">
	.st0{fill:#FEC10F;stroke:#FEC10F;stroke-width:7;stroke-miterlimit:10;}
</style>
<path class="st0" d="M237.2,229.9c0,0.2-0.1,0.3-0.3,0.3l0,0h-43.1c-0.2,0-0.3-0.1-0.3-0.3l0,0V3.8c0-0.2,0.1-0.3,0.3-0.3h43.1
	c0.2,0,0.3,0.1,0.3,0.3V229.9z M234.9,6.1c0-0.2-0.1-0.3-0.3-0.3l0,0h-38.4c-0.2,0-0.3,0.1-0.3,0.3l0,0v221.4c0,0.2,0.1,0.3,0.3,0.3
	h38.4c0.2,0,0.3-0.1,0.3-0.3L234.9,6.1L234.9,6.1z"/>
<path class="st0" d="M119.7,229.8c0,0.2-0.2,0.3-0.4,0.3h-43c-0.2,0-0.3-0.2-0.3-0.3V53.6c0-0.2,0.2-0.4,0.3-0.4l0,0h43
	c0.2,0,0.4,0.2,0.4,0.3l0,0V229.8z M117.3,55.8c0-0.2-0.1-0.3-0.3-0.3H78.6c-0.2,0-0.3,0.1-0.3,0.3v171.7c0,0.2,0.1,0.3,0.3,0.3
	h38.5c0.2,0,0.3-0.1,0.3-0.3L117.3,55.8L117.3,55.8z"/>
<path class="st0" d="M178.6,229.9c0,0.1-0.1,0.3-0.3,0.3l0,0h-43.1c-0.1,0-0.3-0.1-0.3-0.3l0,0V103.8c0-0.1,0.1-0.3,0.3-0.3l0,0
	h43.1c0.1,0,0.3,0.1,0.3,0.3L178.6,229.9L178.6,229.9z M176.2,106c0-0.1-0.1-0.3-0.3-0.3l0,0h-38.4c-0.1,0-0.3,0.1-0.3,0.3l0,0
	v121.5c0,0.1,0.1,0.3,0.3,0.3H176c0.1,0,0.3-0.1,0.3-0.3V106H176.2z"/>
<path class="st0" d="M62.2,229.9c0,0.1-0.1,0.3-0.3,0.3l0,0H18.8c-0.1,0-0.3-0.1-0.3-0.3l0,0v-76.8c0-0.1,0.1-0.3,0.3-0.3h43.1
	c0.1,0,0.3,0.1,0.3,0.3C62.2,153.1,62.2,229.9,62.2,229.9z M59.9,155.5c0-0.2-0.1-0.3-0.3-0.3H21.2c-0.2,0-0.3,0.1-0.3,0.3v72
	c0,0.2,0.1,0.3,0.3,0.3l0,0h38.4c0.2,0,0.3-0.1,0.3-0.3l0,0V155.5z"/>
<path class="st0" d="M3.8,242.5h243.4c0.2,0,0.3,0.1,0.3,0.3v1.8c0,0.2-0.1,0.3-0.3,0.3H3.8c-0.2,0-0.3-0.1-0.3-0.3v-1.8
	C3.5,242.7,3.6,242.5,3.8,242.5z"/>
</svg>
