<?xml version="1.0" encoding="UTF-8" standalone="no"?>
<svg
   version="1.1"
   viewBox="0 0 2252.804 367.58301"
   id="svg2571"
   sodipodi:docname="hv_invest_texto_preto.svg"
   inkscape:export-filename="hv_invest_1.png"
   inkscape:export-xdpi="96"
   inkscape:export-ydpi="96"
   xml:space="preserve"
   width="2252.804"
   height="367.58301"
   xmlns:inkscape="http://www.inkscape.org/namespaces/inkscape"
   xmlns:sodipodi="http://sodipodi.sourceforge.net/DTD/sodipodi-0.dtd"
   xmlns="http://www.w3.org/2000/svg"
   xmlns:svg="http://www.w3.org/2000/svg"><g
     id="g2863"
     transform="matrix(1.4222431,0,0,1.4222431,-193.35915,-77.422543)"><path
       fill="#0000a7"
       fill-opacity="1"
       d="m 795.923,311.73497 a 0.8,0.8 0 0 1 -0.8,0.8 h -11.64 a 0.8,0.8 0 0 1 -0.8,-0.8 V 55.334973 a 0.8,0.8 0 0 1 0.8,-0.8 h 11.64 a 0.8,0.8 0 0 1 0.8,0.8 z M 783.193,55.464973 a 0.13,0.13 0 0 0 -0.13,-0.13 v 0 a 0.13,0.13 0 0 0 -0.13,0.13 V 311.60497 a 0.13,0.13 0 0 0 0.13,0.13 v 0 a 0.13,0.13 0 0 0 0.13,-0.13 z"
       id="path2549" /><rect
       fill="#0001ac"
       fill-opacity="0.973"
       x="782.93298"
       y="55.334976"
       width="0.25999999"
       height="256.39999"
       rx="0.13"
       id="rect2551" /><path
       fill="rgb(255,255,255)"
       fill-opacity="1"
       d="m 1485.6431,292.42497 q -13.65,-0.36 -25.96,-3.89 -17.63,-5.06 -26.13,-20.34 -3.72,-6.69 -5.29,-15.33 -1.36,-7.57 -1.33,-16.33 0.01,-3.8 3.23,-3.6 1.43,0.09 1.55,0.09 3.75,-0.03 6.78,0.05 a 1.75,1.76 1.3 0 1 1.71,1.8 q -0.28,10.31 2.49,19.54 4.95,16.49 21.43,22.18 5.78,2 11.45,2.86 4.5,0.68 11.72,1.05 12.51,0.65 24.7,-1.78 12,-2.4 18.44,-7.21 10.63,-7.95 12.15,-22.96 1.15,-11.36 -1.4,-21.27 -2.57,-9.99 -10.94,-17.06 -7.83,-6.62 -20.24,-12.11 -8.7,-3.85 -43.38,-20.27 -10.9,-5.16 -19.76,-11.99 -7.42,-5.72 -11.49,-13.7 -3.51,-6.89 -4.6,-16.82 -1.21,-11.03 1.16,-21.3 3.49,-15.099997 17.31,-23.689997 10.34,-6.41 22.99,-8.55 8.76,-1.48 19.94,-1.37 11.47,0.12 22.74,2.68 11.1,2.51 20.16,9.32 12.42,9.339997 15.92,24.549997 2.28,9.92 1.47,19.71 a 1.75,1.74 2.3 0 1 -1.74,1.6 h -9.46 a 1.61,1.61 0 0 1 -1.61,-1.68 q 0.33,-8.46 -1.74,-16.07 -2.25,-8.23 -7.25,-14.08 -5.42,-6.34 -13.29,-9.609997 -9.34,-3.88 -20.44,-4.31 -12.44,-0.48 -21.51,0.94 -7.35,1.16 -13.91,4.3 -7.32,3.499997 -11.45,8.579997 -6.09,7.48 -6.38,18.18 -0.19,7.03 0.9,12.92 2.17,11.66 11.41,19.03 4.89,3.9 10.44,6.81 9.76,5.13 19.81,9.68 20.07,9.1 35.75,17 9.5,4.78 18.63,11.87 9.42,7.32 12.88,20.13 4.76,17.63 0.78,34.93 -1.98,8.6 -5.87,14.5 -4.54,6.89 -11.42,11.19 -7.34,4.6 -17.57,6.88 -8.35,1.87 -16.83,2.52 -8.46,0.65 -16.95,0.43 z"
       id="path2553"
       style="fill:#000000" /><path
       fill="rgb(255,255,255)"
       fill-opacity="1"
       d="m 500.243,165.72497 h 52.64 a 0.49,0.5 0 0 0 0.49,-0.5 q 0.16,-61.66 0.06,-79.939997 -0.01,-2.03 1.29,-1.23 a 1.11,1.48 1.4 0 1 0.54,0.76 l 39.65,129.779997 q 0.27,0.88 0.27,1.81 v 72.36 a 0.52,0.52 0 0 1 -0.52,0.52 h -40.67 a 0.56,0.56 0 0 1 -0.56,-0.56 v -87.36 a 0.51,0.51 0 0 0 -0.51,-0.51 l -52.39,-0.07 a 0.85,0.85 0 0 0 -0.85,0.85 v 86.99 a 0.66,0.66 0 0 1 -0.66,0.66 h -40.18 a 0.91,0.91 0 0 1 -0.91,-0.91 l 0.06,-203.889997 a 0.71,0.7 0 0 1 0.71,-0.7 h 40.16 a 0.82,0.82 0 0 1 0.82,0.82 l 0.06,80.609997 a 0.5,0.51 0 0 0 0.5,0.51 z"
       id="path2555"
       style="fill:#000000" /><path
       fill="rgb(255,255,255)"
       fill-opacity="1"
       d="m 653.973,247.98497 q 7.88,-36.97 18.02,-73.39 12.23,-43.97 24.71,-89.679997 a 1.53,1.54 7.7 0 1 1.48,-1.13 h 42.8 a 0.61,0.61 0 0 1 0.58,0.8 l -65.46,204.209997 a 0.7,0.71 9.1 0 1 -0.67,0.49 h -46.24 a 1.18,1.18 0 0 1 -1.13,-0.83 L 565.693,84.274973 a 0.38,0.38 0 0 1 0.37,-0.49 h 44.37 a 0.85,0.86 82.5 0 1 0.83,0.63 q 17.75,64.339997 33.98,128.419997 4.37,17.23 7.68,34.7 0.11,0.57 0.48,0.8 a 0.37,0.45 19.4 0 0 0.57,-0.35 z"
       id="path2557"
       style="fill:#000000" /><rect
       fill="rgb(255,255,255)"
       fill-opacity="1"
       x="842.68298"
       y="83.784973"
       width="13"
       height="205.24001"
       rx="1.29"
       id="rect2559"
       style="display:inline;fill:#000000" /><path
       fill="rgb(255,255,255)"
       fill-opacity="1"
       d="m 926.483,100.48497 q -0.81,-1.419997 -0.8,0.21 l 0.5,186.63 a 1.68,1.69 0 0 1 -1.69,1.7 l -10.16,-0.04 a 1.16,1.18 0.2 0 1 -1.15,-1.18 q 0,-100.32 0,-200.619997 0,-0.09 -0.08,-1.29 -0.16,-2.37 2.23,-2.23 1.57,0.1 1.72,0.1 7.54,-0.18 15.07,0.3 a 0.91,0.9 77.4 0 1 0.74,0.47 l 105.64,187.509997 q 0.93,1.65 0.93,-0.25 l -0.25,-186.769997 a 1.24,1.24 0 0 1 1.24,-1.24 h 10.17 a 1.59,1.59 0 0 1 1.59,1.59 l -0.06,202.489997 a 1.17,1.17 0 0 1 -1.17,1.17 q -7.29,0 -14.56,0 -0.08,0 -1.42,0.09 -2.42,0.16 -3.32,-1.91 -0.67,-1.56 -0.73,-1.67 -52.43,-92.83 -104.44,-185.06 z"
       id="path2561"
       style="fill:#000000" /><path
       fill="rgb(255,255,255)"
       fill-opacity="1"
       d="m 1164.593,275.74497 q 0.27,0.87 0.52,0 5.3,-18.17 11.37,-36.07 26.3,-77.47 52.8501,-154.849997 a 0.82,0.84 4.9 0 1 0.65,-0.56 q 6.26,-1.1 11.84,-0.28 a 1.04,1.04 0 0 1 0.84,1.37 L 1174.283,287.50497 a 2.25,2.26 9.4 0 1 -2.13,1.53 h -14.88 a 1.62,1.63 75.8 0 1 -1.43,-0.85 q -1.09,-2.01 -1.82,-4.37 -0.86,-2.8 -0.89,-2.91 -33.07,-97.53 -65.99,-195.239997 a 1.43,1.42 80.7 0 1 1.35,-1.88 h 10.75 a 2.11,2.11 0 0 1 2,1.44 q 23.85,70.859997 47.6,141.339997 8.3,24.61 15.75,49.18 z"
       id="path2563"
       style="fill:#000000" /><path
       fill="rgb(255,255,255)"
       fill-opacity="1"
       d="m 1291.4931,177.97497 84.7,0.06 q 1.85,0 2.05,1.84 0.49,4.45 -0.14,8.73 a 1.68,1.67 4.2 0 1 -1.66,1.43 l -84.96,0.06 a 0.49,0.51 0 0 0 -0.49,0.51 v 85.61 a 0.51,0.51 0 0 0 0.51,0.51 l 91.41,0.06 a 1.72,1.86 89.5 0 1 1.86,1.69 l 0.14,8.67 q 0.02,1.89 -1.98,1.89 h -103.4 q -1.85,0 -1.85,-1.85 0,-99.78 -0.16,-198.899997 0,-1.9 0.38,-3.6 a 1.15,1.15 0 0 1 1.12,-0.9 h 104.11 a 1.8,1.8 0 0 1 1.8,1.8 v 8.61 a 1.85,1.84 0 0 1 -1.85,1.84 l -91.59,0.06 a 0.5,0.5 0 0 0 -0.5,0.5 v 80.879997 a 0.5,0.5 0 0 0 0.5,0.5 z"
       id="path2565"
       style="fill:#000000" /><path
       fill="rgb(255,255,255)"
       fill-opacity="1"
       d="m 1719.9331,85.094973 q 0,5 0,10 -0.89,0.94 -2.5,0.94 -28.75,0 -58.15,0 a 0.85,0.85 0 0 0 -0.85,0.85 V 287.62497 a 1.41,1.41 0 0 1 -1.41,1.41 q -5.34,0 -10.09,0 -1.04,0 -1.25,-0.75 0.25,-0.13 0.25,-0.75 0,-88 -0.06,-176 0,-1.78 0,-0.25 -0.19,88.5 -0.19,177 -0.25,-0.13 -0.25,-0.75 0,-95.5 0,-190.649997 a 0.85,0.85 0 0 0 -0.85,-0.85 h -58.27 q -2.13,0 -2.13,-2.13 v -8.38 a 1.74,1.74 0 0 1 1.74,-1.74 q 65.89,0 131.51,0 1.93,0 2.5,1.31 z"
       id="path2567"
       style="fill:#000000" /><path
       fill="rgb(255,255,255)"
       fill-opacity="1"
       d="m 1645.6831,288.28497 q 0,-88.5 0.19,-177 0,-1.53 0,0.25 0.06,88 0.06,176 0,0.62 -0.25,0.75 z"
       id="path2569"
       style="fill:#000000" /></g><defs
     id="defs2575" /><sodipodi:namedview
     id="namedview2573"
     pagecolor="#505050"
     bordercolor="#eeeeee"
     borderopacity="1"
     inkscape:showpageshadow="0"
     inkscape:pageopacity="0"
     inkscape:pagecheckerboard="0"
     inkscape:deskcolor="#505050"
     showgrid="false" /><g
     id="Layer1033"
     transform="matrix(3.1954905,0,0,3.1859738,-1895.988,-3602.8868)"
     sodipodi:insensitive="true"><path
       d="m 651.02,1130.8589 a 57.6877,57.6877 0 0 1 57.6878,57.6877 57.6877,57.6877 0 1 1 -57.6878,-57.6877 z"
       style="fill:#0000a7;fill-rule:evenodd"
       id="path218" /><path
       d="m 651.02,1135.6659 a 52.8807,52.8807 0 0 1 52.8807,52.8807 52.8807,52.8807 0 1 1 -52.8807,-52.8807 z"
       style="fill:#0000a7;fill-rule:evenodd;stroke:#ffffff;stroke-width:4.3701;stroke-linecap:round;stroke-linejoin:round;stroke-dasharray:none"
       id="path220" /><path
       d="m 651.052,1151.7001 c 20.3495,0 36.8463,16.4968 36.8463,36.8463 0,0.4738 -0.0117,0.9449 -0.0294,1.4148 h 4.6223 l -7.3399,7.8542 -7.3404,-7.8542 h 4.6229 c 0.0211,-0.4694 0.0333,-0.9404 0.0333,-1.4148 0,-17.3501 -14.065,-31.415 -31.4151,-31.415 -13.3364,0 -24.7304,8.3108 -29.2889,20.0349 l -4.3465,-3.6835 c 5.7591,-12.8394 18.6528,-21.7827 33.6354,-21.7827 z m -34.3506,28.9927 -7.3404,7.8541 h 4.8448 c 5e-4,20.3495 16.4967,36.8457 36.8462,36.8457 14.5871,0 27.1934,-8.4772 33.1639,-20.7733 l -4.3044,-3.6475 c -4.8154,11.1698 -15.923,18.9896 -28.8595,18.9896 -17.35,0 -31.4144,-14.0644 -31.415,-31.4145 h 4.4043 z"
       style="fill:#ffffff;fill-rule:evenodd"
       id="path222" /><path
       d="m 651.0522,1168.8755 a 19.6711,19.6711 0 0 1 19.6711,19.671 19.6711,19.6711 0 1 1 -19.6711,-19.671 z"
       style="fill:#ffffff;fill-rule:evenodd"
       id="path224" /><path
       d="m 657.71,1192.3313 c 0,3.0155 -1.7856,4.7759 -5.363,5.2878 0,2.1351 0.05,1.8134 0.15,3.2557 h -2.616 c 0.069,-1.4423 0.1061,-1.0582 0.1061,-3.0748 -1.8417,0 -3.7021,-0.1995 -5.5935,-0.599 l 0.5991,-3.5336 c 1.5299,0.5242 3.0469,0.7866 4.5578,0.7866 1.367,0 2.3284,-0.1248 2.8903,-0.3747 0.5619,-0.2495 0.8428,-0.6867 0.8428,-1.3047 0,-0.8428 -0.9676,-1.6671 -2.8903,-2.4723 -1.7918,-0.7556 -3.0655,-1.4422 -3.8274,-2.0665 -1.1799,-0.9738 -1.7728,-2.1599 -1.7728,-3.546 0,-1.3547 0.4433,-2.5098 1.3295,-3.465 0.8804,-0.9614 2.1851,-1.5604 3.9021,-1.8042 0,-2.497 -0.0499,-2.0041 -0.1437,-3.2031 h 2.616 c -0.1,1.1866 -0.15,0.6499 -0.15,3.0784 2.0227,0.018 3.565,0.2123 4.6135,0.5618 l -0.6242,3.5522 c -1.3919,-0.5495 -2.8841,-0.8238 -4.4822,-0.8238 -1.7794,0 -2.6722,0.5243 -2.6722,1.5733 0,0.499 0.2372,0.9175 0.6991,1.2609 0.3747,0.2933 1.1175,0.6494 2.2289,1.0799 1.7794,0.6933 3.0655,1.3799 3.8583,2.048 1.1609,0.9985 1.7418,2.2598 1.7418,3.7831 z"
       style="fill:#0000a7;fill-rule:evenodd"
       id="path226" /></g></svg>
