<?xml version="1.0" encoding="utf-8"?>
<!-- Generator: Adobe Illustrator 22.0.0, SVG Export Plug-In . SVG Version: 6.00 Build 0)  -->
<svg version="1.1" id="Layer_1" xmlns="http://www.w3.org/2000/svg" xmlns:xlink="http://www.w3.org/1999/xlink" x="0px" y="0px"
	 viewBox="0 0 207.7 234.8" style="enable-background:new 0 0 207.7 234.8;" xml:space="preserve">
<style type="text/css">
	.st0{fill:#FBC216;}
</style>
<path class="st0" d="M103,0h1.1c2.1,0,3.9,1.7,3.9,3.9v19.1c0,2.1-1.7,3.9-3.9,3.9H103c-2.1,0-3.9-1.7-3.9-3.9V3.9
	C99.2,1.7,100.9,0,103,0z"/>
<path class="st0" d="M27.7,33.2l0.2-0.2c1.7-1.7,4.5-1.7,6.2,0l12.6,12.6c1.7,1.7,1.7,4.5,0,6.2L46.5,52c-1.7,1.7-4.5,1.7-6.2,0
	L27.7,39.4C26,37.7,26,34.9,27.7,33.2z"/>
<path class="st0" d="M160.9,45.6L173.6,33c1.7-1.7,4.5-1.7,6.2,0l0.2,0.2c1.7,1.7,1.7,4.5,0,6.2L167.3,52c-1.7,1.7-4.5,1.7-6.2,0
	l-0.2-0.2C159.2,50.1,159.2,47.3,160.9,45.6z"/>
<path class="st0" d="M48,71.5c27.1-40.4,86.7-39.6,112.5,2.2c15.6,25.2,12.5,57.1-7,79.1c-2.3,2.6-5,5.3-6.7,8
	c-3.5,5.6-5.5,11.6-5.9,17.9c-0.6,9.2-0.8,14.3-7.1,20.3c-0.2,0.2-0.4,0.5-0.4,0.8c-0.8,3.9-0.1,8.6-0.1,12.6
	c0,9.5-5.8,17.9-14.7,21.1c-2.1,0.7-5.1,1.1-9.1,1.1c-6.1,0-13.5,0.6-18.8-0.8c-16.5-4.1-17.1-18.8-16.3-33.2c0-0.6-0.2-1.2-0.7-1.6
	c-7.3-6.7-6.9-14.6-7.8-23.7c-1.1-12.1-8.4-18-15.3-26.9C33.6,126.5,32.6,94.6,48,71.5z M129.4,63.6c-16.5-9.6-38.2-8.7-53.9,1.5
	c-23.7,15.3-30.6,48.3-14.9,71.8c2.7,4,6.9,8.4,10.4,12.6c5.6,6.8,8.9,14.6,9.7,23.3c0.5,5.5,0.9,9.1,1.1,10.8c0.7,4.6,3.3,7,8.1,7
	c9.3,0,18.7,0,28-0.1c5.7-0.1,7.6-3.3,8.1-8.8c0.9-11.1,2-20.2,8.7-29.6c3.8-5.4,10.7-12,14.2-18.3
	C162.8,108.9,153.7,77.6,129.4,63.6z M118.3,205.2H89.2c-0.1,0-0.3,0.1-0.3,0.3v6.4c0,4.5,3.6,8.1,8,8.1h13.6c4.4,0,8-3.6,8-8.1
	v-6.4C118.6,205.3,118.5,205.2,118.3,205.2z"/>
<path class="st0" d="M69.2,94.3c6.4-14.1,17.2-21.7,32.4-22.8c5.5-0.4,9.5,1.5,9.6,7.4c0,5.3-4.2,7.4-8.9,7.7
	c-9,0.5-15.9,5.5-19.1,13.7c-1.2,3-2.1,4.8-2.7,5.4c-4.3,4.4-11.9,1.9-12.7-4.3C67.6,99.2,68.1,96.9,69.2,94.3z"/>
<path class="st0" d="M4,104.2h18.9c2.2,0,4,1.8,4,4v0.9c0,2.2-1.8,4-4,4H4c-2.2,0-4-1.8-4-4v-0.9C0,105.9,1.8,104.2,4,104.2z"/>
<path class="st0" d="M184.8,104.1l18.9,0c2.2,0,3.9,1.8,3.9,3.9l0,1c0,2.2-1.8,3.9-3.9,3.9l-18.9,0c-2.2,0-3.9-1.8-3.9-3.9l0-1
	C180.9,105.9,182.6,104.1,184.8,104.1z"/>
</svg>
