<svg id="Layer_1" data-name="Layer 1" xmlns="http://www.w3.org/2000/svg" viewBox="0 0 627.97 103.57"><defs><style>.cls-1{fill:#fff;}</style></defs><title>logotipo-invertida</title><g id="Camada_1"><g id="_1548492548096" data-name=" 1548492548096"><path class="cls-1" d="M52.46,1V52.62H45.29V12.92a59.23,59.23,0,0,1-3.11,7.17L29.74,44.25h-7.1L10.44,20.09q-1-2-1.95-3.87C7.88,15,7.39,13.9,7,13V52.62H0V1H8.37L20,23.76a116.77,116.77,0,0,1,6.3,14,62.26,62.26,0,0,1,2.43-6.14c1-2.28,2.33-4.89,3.87-7.81L44.33,1Zm61.36,52.62a24.31,24.31,0,0,1-13.15-3.39,21.21,21.21,0,0,1-8.18-9.45,33.89,33.89,0,0,1-2.75-14.11q0-8.93,3.35-14.91A21.32,21.32,0,0,1,102,2.87,26.66,26.66,0,0,1,114.38,0a24.35,24.35,0,0,1,13.16,3.39,21.25,21.25,0,0,1,8.17,9.45A33.89,33.89,0,0,1,138.46,27q0,8.93-3.35,14.91a21.43,21.43,0,0,1-8.93,8.85,26.66,26.66,0,0,1-12.36,2.87Zm0-6.22a16.39,16.39,0,0,0,9.45-2.59,15.62,15.62,0,0,0,5.66-7.14A27.64,27.64,0,0,0,130.8,27,30.17,30.17,0,0,0,129,16.14a15.67,15.67,0,0,0-5.46-7.29,15.36,15.36,0,0,0-9.17-2.63,16.36,16.36,0,0,0-9.45,2.59A15.68,15.68,0,0,0,99.27,16a27.64,27.64,0,0,0-1.87,10.6,30.33,30.33,0,0,0,1.79,10.88,15.7,15.7,0,0,0,5.46,7.3,15.36,15.36,0,0,0,9.17,2.63ZM228.2,1V52.62H221V12.92a59.23,59.23,0,0,1-3.11,7.17L205.48,44.25h-7.1L186.19,20.09c-.7-1.33-1.35-2.62-2-3.87s-1.1-2.32-1.47-3.22V52.62h-7V1h8.37l11.64,22.8a116.77,116.77,0,0,1,6.3,14,62.26,62.26,0,0,1,2.43-6.14c1-2.28,2.33-4.89,3.87-7.81L220.07,1ZM265.05,46.4h39.14v6.22H265.05Zm0-45.44h38.74V7.18H265.05Zm0,22.32h35.63l-.8,6.06H265.05ZM381.22,1V52.62h-8.13L350.37,19.13l-1-1.51a18.09,18.09,0,0,0-1-1.51c-.55-.8-1-1.55-1.43-2.24s-.76-1.38-1.08-2.07V52.62h-7V1h7.73l23.36,34.2c.21.32.66,1,1.36,2S372.53,39,373,39.82a22,22,0,0,1,1.2,2.36V1Zm78.26,0V7.34H441.62V52.62h-7.33V7.34H416.35V1Zm55.23,52.62a23.42,23.42,0,0,1-12-2.79,17.27,17.27,0,0,1-7.1-7.7A25.77,25.77,0,0,1,493.34,32V1h7.33V30.38q0,16.82,14.51,16.82,7.43,0,10.73-4.27t3.31-12.07V1h7.33V31.73q0,7.57-2.87,12.48a17.05,17.05,0,0,1-7.77,7.14,26.88,26.88,0,0,1-11.2,2.23ZM628,1V52.62H620.8V12.92a59.23,59.23,0,0,1-3.11,7.17L605.25,44.25h-7.1L586,20.09q-1-2-2-3.87c-.61-1.24-1.1-2.32-1.47-3.22V52.62h-7V1h8.37l11.64,22.8a116.77,116.77,0,0,1,6.3,14,59.87,59.87,0,0,1,2.43-6.14c1-2.28,2.33-4.89,3.87-7.81L619.84,1Z"/><path class="cls-1" d="M213.71,103.1V77.46h3.64V103.1Zm46.51-25.64V103.1h-4L244.91,86.48l-.51-.75a8.92,8.92,0,0,0-.5-.75c-.28-.4-.51-.77-.71-1.11a11.22,11.22,0,0,1-.53-1V103.1h-3.49V77.46H243l11.6,17c.1.16.33.48.67,1s.63.94.87,1.35a10.71,10.71,0,0,1,.59,1.17V77.46h3.48Zm38.92,0h3.64v.23l-9.46,25.41h-4.43l-9.42-25.41v-.23h3.8l8,22.16,7.92-22.16ZM325.67,100h12.58v3.09H322V77.46h16v3.08H325.67v8h10.84l-.4,3H325.67V100Zm40.25,3.56a16,16,0,0,1-5.1-.77,13.56,13.56,0,0,1-4.12-2.15L358.45,98A10.76,10.76,0,0,0,362,99.87a12.86,12.86,0,0,0,3.78.62,7.63,7.63,0,0,0,4.33-1,3.55,3.55,0,0,0,1.48-3.13,3.59,3.59,0,0,0-.53-2,5,5,0,0,0-1.74-1.44,23.8,23.8,0,0,0-3.47-1.44l-.67-.24a27.24,27.24,0,0,1-4-1.72,7.31,7.31,0,0,1-2.5-2.24,6,6,0,0,1-.95-3.48A5.85,5.85,0,0,1,358.94,80a7.25,7.25,0,0,1,3.19-2.28,11.84,11.84,0,0,1,4.23-.75,16.4,16.4,0,0,1,4.49.6A14.61,14.61,0,0,1,375,79.51l-1.67,2.62A13.83,13.83,0,0,0,370,80.52a12.43,12.43,0,0,0-3.64-.49,6.42,6.42,0,0,0-3.48.87,3.27,3.27,0,0,0-.93,4.35,4.27,4.27,0,0,0,1.58,1.35,20.39,20.39,0,0,0,3.15,1.34l.67.24a33.28,33.28,0,0,1,4.23,1.72,7.8,7.8,0,0,1,2.73,2.34,6.3,6.3,0,0,1,1.15,3.93,6.87,6.87,0,0,1-1.15,4.06,7,7,0,0,1-3.28,2.49,13.63,13.63,0,0,1-5.07.85Zm48.34-26.11v3.16h-8.87V103.1h-3.64V80.62h-8.9V77.46Z"/></g></g></svg>