<?xml version="1.0" encoding="UTF-8"?>
<!DOCTYPE svg PUBLIC "-//W3C//DTD SVG 1.1//EN" "http://www.w3.org/Graphics/SVG/1.1/DTD/svg11.dtd">
<!-- Creator: CorelDRAW 2020 (64 Bit) -->
<svg xmlns="http://www.w3.org/2000/svg" xml:space="preserve" width="297mm" height="210mm" version="1.1" style="shape-rendering:geometricPrecision; text-rendering:geometricPrecision; image-rendering:optimizeQuality; fill-rule:evenodd; clip-rule:evenodd"
viewBox="0 0 29698.94 20999.25"
 xmlns:xlink="http://www.w3.org/1999/xlink"
 xmlns:xodm="http://www.corel.com/coreldraw/odm/2003">
 <defs>
  <style type="text/css">
   <![CDATA[
    .fil0 {fill:none}
    .fil1 {fill:#092E3E}
    .fil2 {fill:#092E3E;fill-rule:nonzero}
   ]]>
  </style>
 </defs>
 <g id="Camada_x0020_1">
  <metadata id="CorelCorpID_0Corel-Layer"/>
  <polygon class="fil0" points="-0,0 29698.94,0 29698.94,20999.25 -0,20999.25 "/>
  <g id="_1548492548096">
   <path class="fil1" d="M18038.37 7994.12c0,-1804.58 -1462.88,-3267.45 -3267.45,-3267.45 -1804.58,0 -3267.45,1462.88 -3267.45,3267.45 0,1804.58 1462.88,3267.45 3267.45,3267.45 1804.58,0 3267.45,-1462.88 3267.45,-3267.45zm-4111.13 -1524.65l600.64 346.75 -1494.31 2588.21 -600.63 -346.78 1494.3 -2588.18zm1994.85 37.5l693.54 0 0 2988.61 -693.54 0 0 -2988.61zm-1158.28 0l693.55 0 0 2988.61 -693.55 0 0 -2988.61z"/>
   <path class="fil2" d="M5623.8 12652.63l0 1822.51 -253.12 0 0 -1400.64c-28.13,80.61 -64.69,165 -109.71,253.12l-438.74 852.19 -250.31 0 -430.33 -852.19c-24.38,-46.89 -47.35,-92.34 -68.91,-136.41 -21.57,-44.08 -38.92,-82.05 -52.02,-113.91l0 1397.83 -247.5 0 0 -1822.51 295.3 0 410.64 804.38c110.64,217.5 184.7,381.56 222.18,492.19 20.65,-63.75 49.24,-135.96 85.8,-216.56 36.57,-80.64 82.05,-172.51 136.42,-275.63l413.45 -804.38 286.87 0zm2164.6 1856.26c-181.86,0 -336.57,-39.86 -464.06,-119.52 -127.52,-79.69 -223.61,-190.81 -288.3,-333.3 -64.67,-142.51 -97.02,-308.44 -97.02,-497.81 0,-210.02 39.38,-385.35 118.12,-525.97 78.75,-140.62 183.75,-244.69 315.01,-312.2 131.25,-67.47 276.58,-101.23 435.95,-101.23 181.86,0 336.57,39.84 464.06,119.53 127.5,79.69 223.58,190.78 288.28,333.3 64.69,142.49 97.04,308.44 97.04,497.81 0,209.99 -39.37,385.32 -118.12,525.94 -78.77,140.62 -183.75,244.69 -315.01,312.2 -131.25,67.5 -276.57,101.25 -435.95,101.25zm0 -219.36c133.15,0 244.23,-30.49 333.3,-91.43 89.07,-60.93 155.62,-144.83 199.67,-251.71 44.08,-106.88 66.1,-231.58 66.1,-374.08 0,-146.24 -21.08,-274.23 -63.26,-383.92 -42.21,-109.68 -106.42,-195.47 -192.67,-257.33 -86.26,-61.89 -194.08,-92.83 -323.44,-92.83 -133.14,0 -244.23,30.46 -333.3,91.4 -89.07,60.96 -155.62,144.86 -199.69,251.74 -44.05,106.88 -66.1,231.55 -66.1,374.08 0,146.24 21.1,274.2 63.29,383.91 42.18,109.69 106.42,195.46 192.67,257.34 86.25,61.88 194.04,92.83 323.43,92.83zm4034.96 -1636.9l0 1822.51 -253.12 0 0 -1400.64c-28.14,80.61 -64.7,165 -109.72,253.12l-438.74 852.19 -250.31 0 -430.33 -852.19c-24.37,-46.89 -47.34,-92.34 -68.91,-136.41 -21.56,-44.08 -38.91,-82.05 -52.02,-113.91l0 1397.83 -247.5 0 0 -1822.51 295.31 0 410.64 804.38c110.63,217.5 184.69,381.56 222.18,492.19 20.64,-63.75 49.23,-135.96 85.8,-216.56 36.56,-80.64 82.04,-172.51 136.41,-275.63l413.45 -804.38 286.88 0zm1299.71 1603.14l1380.8 0 0 219.37 -1380.8 0 0 -219.37zm0 -1603.14l1366.72 0 0 219.36 -1366.72 0 0 -219.36zm0 787.49l1257.04 0 -28.13 213.75 -1228.91 0 0 -213.75zm4098.26 -787.49l0 1822.51 -286.9 0 -801.58 -1181.27 -36.56 -53.45c-3.73,-7.49 -15.46,-25.3 -35.16,-53.43 -19.67,-28.13 -36.56,-54.37 -50.61,-78.75 -14.08,-24.37 -26.73,-48.75 -37.97,-73.12l0 1440.01 -247.5 0 0 -1822.51 272.79 0 824.09 1206.56c7.51,11.27 23.45,34.24 47.83,68.91 24.37,34.7 44.99,66.56 61.86,95.64 16.89,29.08 30.94,56.72 42.21,82.96l0 -1454.06 247.5 0zm2760.83 0l0 224.99 -630.01 0 0 1597.52 -258.75 0 0 -1597.52 -632.84 0 0 -224.99 1521.6 0zm1948.04 1856.26c-168.76,0 -309.39,-32.8 -421.88,-98.44 -112.5,-65.62 -195.94,-156.08 -250.31,-271.42 -54.4,-115.31 -81.58,-246.09 -81.58,-392.35l0 -1094.06 258.77 0 0 1037.8c0,395.64 170.61,593.45 511.89,593.45 174.37,0 300.46,-50.16 378.26,-150.46 77.83,-100.31 116.75,-242.34 116.75,-426.09l0 -1054.69 258.74 0 0 1085.63c0,178.13 -33.75,324.84 -101.26,440.14 -67.5,115.34 -158.89,199.24 -274.23,251.75 -115.31,52.5 -247.01,78.74 -395.15,78.74zm3995.58 -1856.26l0 1822.51 -253.12 0 0 -1400.64c-28.13,80.61 -64.7,165 -109.72,253.12l-438.73 852.19 -250.32 0 -430.33 -852.19c-24.37,-46.89 -47.34,-92.34 -68.91,-136.41 -21.56,-44.08 -38.91,-82.05 -52.02,-113.91l0 1397.83 -247.5 0 0 -1822.51 295.31 0 410.64 804.38c110.63,217.5 184.7,381.56 222.18,492.19 20.64,-63.75 49.23,-135.96 85.8,-216.56 36.56,-80.64 82.04,-172.51 136.41,-275.63l413.46 -804.38 286.87 0z"/>
   <path class="fil2" d="M11312.25 16255.84l0 -904.55 128.43 0 0 904.55 -128.43 0zm1640.74 -904.55l0 904.55 -142.38 0 -397.84 -586.28 -18.14 -26.53c-1.87,-3.72 -7.68,-12.56 -17.45,-26.52 -9.78,-13.96 -18.15,-26.99 -25.13,-39.09 -6.98,-12.09 -13.26,-24.19 -18.85,-36.29l0 714.7 -122.84 0 0 -904.55 135.41 0 409 598.84c3.73,5.59 11.64,16.99 23.73,34.21 12.1,17.21 22.34,33.03 30.72,47.46 8.37,14.42 15.35,28.15 20.93,41.18l0 -721.68 122.85 0zm1372.72 0l128.43 0 0 8.37 -333.62 896.18 -156.34 0 -332.23 -896.18 0 -8.37 134.01 0 280.58 781.71 279.18 -781.71zm935.81 795.67l443.89 0 0 108.88 -572.32 0 0 -904.55 565.34 0 0 108.88 -436.91 0 0 281.98 382.48 0 -13.96 106.09 -368.52 0 0 298.73zm1420.18 125.63c-65.15,0 -125.17,-9.07 -180.07,-27.22 -54.91,-18.15 -103.3,-43.51 -145.17,-76.08l61.42 -92.13c37.23,28.85 79.34,50.48 126.34,64.91 46.99,14.42 91.43,21.64 133.31,21.64 67.01,0 117.96,-12.1 152.85,-36.3 34.9,-24.19 52.35,-60.96 52.35,-110.28 0,-28.85 -6.29,-52.58 -18.85,-71.19 -12.56,-18.62 -33.04,-35.6 -61.42,-50.96 -28.39,-15.35 -69.1,-32.34 -122.15,-50.95l-23.73 -8.37c-58.63,-20.48 -106.09,-40.72 -142.38,-60.73 -36.29,-20.01 -65.61,-46.3 -87.94,-78.87 -22.34,-32.57 -33.51,-73.52 -33.51,-122.84 0,-52.12 14.2,-96.09 42.58,-131.92 28.39,-35.83 65.84,-62.59 112.38,-80.27 46.53,-17.68 96.32,-26.52 149.35,-26.52 55.84,0 108.66,6.98 158.43,20.94 49.79,13.96 98.42,36.76 145.87,68.4l-58.63 92.13c-40.95,-26.06 -80.5,-44.9 -118.65,-56.54 -38.16,-11.63 -80.97,-17.44 -128.43,-17.44 -49.33,0 -90.27,10.23 -122.85,30.71 -32.57,20.47 -48.86,52.11 -48.86,94.92 0,22.34 5.36,41.88 16.06,58.63 10.7,16.75 29.31,32.57 55.84,47.46 26.52,14.89 63.51,30.72 110.97,47.47l23.74 8.37c62.35,21.41 112.14,41.65 149.35,60.73 37.23,19.08 69.34,46.53 96.33,82.36 26.98,35.83 40.48,82.13 40.48,138.9 0,56.77 -13.5,104.46 -40.48,143.07 -26.99,38.62 -65.62,67.94 -115.87,87.95 -50.25,20.01 -109.82,30.01 -178.67,30.01zm1704.95 -921.3l0 111.67 -312.68 0 0 792.88 -128.43 0 0 -792.88 -314.08 0 0 -111.67 755.18 0z"/>
  </g>
 </g>
</svg>
