<?xml version="1.0" encoding="utf-8"?>
<!-- Generator: Adobe Illustrator 22.0.0, SVG Export Plug-In . SVG Version: 6.00 Build 0)  -->
<svg version="1.1" id="Layer_1" xmlns="http://www.w3.org/2000/svg" xmlns:xlink="http://www.w3.org/1999/xlink" x="0px" y="0px"
	 viewBox="0 0 255.1 250.4" style="enable-background:new 0 0 255.1 250.4;" xml:space="preserve">
<style type="text/css">
	.st0{fill:#FBC216;}
</style>
<path class="st0" d="M29.2,134.5c0.1-0.8-0.1-1.5,0-2.3c2.3-11.6,7.1-22,14.2-31.2c4.4-5.8,9.9-10.1,15.9-14.8
	c2.6-2,5.2-3.4,7.8-4.2c0.3-0.1,0.7,0,0.9,0.2c1.3,0.9,2.3,2,3,3.3c0.2,0.3,0.2,0.7,0.1,1c-0.8,2.1-1.8,3.4-3,4.1
	c-5.7,3.1-10.7,7.1-14.9,12c-1.3,1.6-2.8,3-3.9,4.5c-14.7,20.7-17.3,48.8-7,71.7c5.7,12.7,14.9,22.4,27.7,29.3
	c3.1,1.6,5,4.4,5.7,8.2c1.6,8,3.2,15.9,4.8,23.9c0.2,1,1,1.7,2,1.7l14.5,0.4c2.2,0.1,3.4-1,3.7-3.1c0.5-3.9,1.2-7.6,1.9-11.3
	c1.1-5.6,4.7-7.3,9.8-6.8c7.2,0.7,14.4,0.4,21.6,0.4c5.4,0,11.5-1.3,17.4-1.3c4.1,0,6.1,4.8,6.6,8.2c0.6,4.3,1.3,8.4,2.3,12.5
	c0.1,0.6,0.7,1,1.3,1c5.6,0.1,11.4,0.8,16.8-0.3c0.9-0.2,1.6-0.9,1.8-1.8c1.6-7.8,3-15.7,4.3-23.8c1.1-6.6,3.7-7.3,9.8-11.4
	c3.8-2.5,7.7-4.8,11-7.8c5.1-4.6,8.5-8.1,10.1-10.6c4.3-6.5,6.5-10,12.9-12.1c5.7-1.8,11.3-3.3,16.6-6.1c3.3-1.7,2.4-12.7,2.3-15.9
	c-0.1-5.8,0.1-9.6-5.2-11.8c-4.5-1.8-9.3-2.6-13.6-5.5c-3.6-2.4-5.2-8.4-6.7-12.3c-1.9-4.7-4.9-8.7-7.7-12.9
	c-0.2-0.3-0.6-0.4-0.9-0.2c-0.1,0.1-0.2,0.2-0.3,0.4c-3.2,10.5-13.7,15-24.1,13.5c-12.1-1.7-22.5-9.7-25.1-21.9
	c-0.7-3.3-1.1-7.1-1.1-11.3c0-2.8,0.9-6.1,0.9-9.2c0-0.3-0.2-0.5-0.5-0.5c-1.3-0.1-2.5-0.4-3.6-0.9c-0.9-0.4-1.9-0.1-2.4,0.7
	c-2.9,4.7-8.1,9-12.2,12c-1.8,1.3-1.6,2,0.6,2.2c3.2,0.2,5.3,1.7,6.5,4.6c0.1,0.3,0.1,0.6,0,0.9c-1.3,3.7-4,3.9-7.5,2.9
	c-9.1-2.5-17.4-4-24.9-4.3c-11-0.5-22.8,1.1-35.2,4.9c-2.2,0.7-3.8,0.2-4.9-1.5c-1.6-2.5-0.1-5.2,2.1-6.6c1.4-0.9,3.4-1,5.2-1.8
	c0.3-0.1,0.3-0.3,0.1-0.5C79.7,88.2,74.6,83,71.3,77.4c-4.2-6.9-6.5-14.6-7.1-23C61,9.7,113.3-16.4,147.6,11.5
	c5,4.1,9.2,9.2,12.5,15.4c1.3,2.5,1.4,3.7-0.3,5.9c-4,5-8.5-4.1-10-6.7c-1.3-2.2-3.5-4.5-6.6-7.2c-11-9.3-23.4-12.4-37.3-9.4
	C78.7,15.5,66.2,43,75.9,68.2c3.8,9.9,12.9,17.7,22.5,21.9c2.7,1.2,8.1,0.1,11.2-0.1c6-0.3,12.3,0.4,18.4,0.4c2,0,3.9-0.4,5.5-1.2
	c7.9-3.7,14-9.4,18.3-16.9c3.3-5.8,4.6-12.4,5.6-19.2c1-7.1,9.7-5,8.6,2.4c-0.7,5-2,9.9-4,14.7c-0.2,0.5,0,1.1,0.5,1.3
	c1.6,0.7,3.2,1,5,1c1.3,0,2.9-0.4,4.8-1.3c9.8-4.5,31.5-14.9,40.1-10.1c2.8,1.6,4.2,5.3,4.7,8.7c1.1,6.6,1.4,12.2,0.9,17
	c-0.3,3-1.8,7.7-2,12.4c0,0.3,0.1,0.6,0.4,0.8c4.9,4.5,10.3,12.2,12.3,17.3c1.2,3,2.4,6.1,3.7,9.1c0.6,1.5,3.1,2.7,4.9,3.2
	c5.4,1.5,10,2.7,14.2,6.7c0.2,0.2,0.4,0.5,0.5,0.8c0.2,0.7,0.7,1.3,1.3,1.7c0.3,0.2,0.5,0.5,0.6,0.8c0.5,1.4,1.2,2.7,1.2,4.2
	c0,6.5,0,13,0,19.4c0,2.8-0.5,5-1.3,6.7c-1.7,3.4-4.4,5.7-8,6.9c-4.9,1.7-9.8,3.2-14.7,4.8c-2.7,0.8-4.2,1.9-5.9,4.4
	c-3.3,4.9-7,9.4-11.1,13.6c-4,4.1-10.4,9.4-15.6,12.1c-1.7,0.9-5.4,2.3-5.6,4.3c-1.5,11.6-3.3,20.8-5.2,27.4
	c-0.8,2.6-2.3,4.5-4.8,5.6c-1.4,0.6-3.7,1-6.8,1.1c-4.1,0.1-8.2,0.1-12.3,0.1c-11.6-0.1-11.5-7-13.5-16.4c-0.3-1.3,0-3.2-0.7-4.4
	c-0.4-0.7-1.1-1-1.9-0.9c-10.5,1.6-21.3,2.4-31.8,0.8c-0.8-0.1-2.2-0.1-4.2,0c-0.3,0-0.5,0.2-0.6,0.5c-1.5,6.1-1.8,20.2-11.1,20.3
	c-6.5,0-13.1,0-19.6,0c-1.1,0-2.3-0.4-3.6-1.3c-3-1.9-4.7-6.1-5.4-9.5c-1.3-6.7-2.5-13.5-3.6-20.3c-0.6-3.7-3.8-4.4-6.4-6.4
	c-5.3-3.9-10.7-8.1-14.9-12.8c-9.9-11-15.8-23.8-17.8-38.6c-0.7-5.1-0.7-11-0.7-16.2c0-2.5-0.6-2.6-1.8-0.5
	c-4.4,7.6-11.2,12.1-20.5,13.4c-4.2,0.6-8.2-5.2-3.6-8.1c0.6-0.4,1.6-0.7,3.2-0.9c4.1-0.7,11.3-2.7,12.2-7c0.1-0.3-0.1-0.5-0.4-0.6
	c-6.5-1.4-14.7-5.3-14-13.3c0.3-2.8,1.5-5.2,3.9-7.2c1.1-1,1.7-2,3.1-2.5c8.2-3.2,15.4,3.5,17.7,10.9c0.4,1.5,0.4,3.4,1,5.1
	C29,135.1,29.2,135.1,29.2,134.5z M203.9,108.7c4.9-11.4,6.9-24.4,5.3-36.8c-0.4-2.8-1.3-3.9-4.3-3.2c-10.5,2.6-20.3,6-29.3,10.4
	c-1.3,0.6-2.2,1.3-2.7,1.9c-2.2,2.7-1.9,9.6-1.8,12.8c0.3,14.4,10.3,21.9,24.2,20.8C199.9,114.3,202.1,112.9,203.9,108.7z
	 M13.6,126.1l-2.1,2.7c-0.3,0.4-0.2,0.9,0.2,1.1c0,0,0,0,0,0l0.2,0.1c3.7,2.7,7.3,4.1,8.1,3c0,0,0,0,0,0l0.1-0.1
	c0.8-1.1-1.5-4.2-5.1-7l-0.2-0.2C14.3,125.7,13.8,125.8,13.6,126.1C13.6,126.1,13.6,126.1,13.6,126.1z"/>
<path class="st0" d="M119.1,34.7v11.1c0,0.5,0.3,1,0.8,1.2c7,2.2,11.7,7.2,11.1,14.9c-0.5,6.2-4.7,11.8-11.3,12.6
	c-0.3,0-0.5,0.2-0.5,0.5c-0.1,1.7-1,2.8-2.6,3.4c-0.3,0.1-0.6,0.1-0.9-0.1c-1.1-0.7-1.6-1.7-1.5-2.9c0-0.4-0.1-0.6-0.5-0.6
	c-4.7-0.2-11.7-2.8-12.9-8c-0.1-0.3,0-0.7,0.1-1c0.7-1.4,1.8-2.5,3.1-3.4c0.3-0.2,0.5-0.1,0.7,0c2.5,1.9,5.8,4.5,8.9,4.6
	c0.4,0,0.6-0.2,0.6-0.5V53.2c0-0.3-0.2-0.5-0.5-0.6c-7.8-2.3-14.2-8.3-11.2-17c1.6-4.6,6.6-8.1,11.1-8.2c0.4,0,0.5-0.2,0.5-0.5
	c-0.1-1.4,0.5-2.5,1.7-3.3c0.3-0.2,0.7-0.2,1.1,0c1.1,0.6,1.8,1.5,2.2,2.6c0.1,0.3,0.3,0.5,0.6,0.6c1.7,0.6,3.7,0.7,5.1,1.2
	c1.9,0.7,3.5,1.7,4.9,3.1c0.5,0.5,0.7,1.4,0.3,2.1c-0.5,0.9-1.1,1.8-1.9,2.6c-0.5,0.6-1.4,0.7-2.1,0.5l-6.2-2.1
	C119.4,34,119.1,34.1,119.1,34.7z M114.9,44.3l0-9.7c0-0.1-0.1-0.2-0.2-0.2l0,0h-0.1c-2.8,0-5,2.3-5,5c0,0,0,0,0,0l0,0
	c0,2.8,2.3,5,5,5c0,0,0,0,0,0h0.1C114.8,44.4,114.9,44.3,114.9,44.3z M118.6,55.4l0.1,11.3c0,0.1,0,0.1,0.1,0.1l0,0h0
	c2.5,0,4.4-2.2,4.4-4.9v-1.9c0-2.7-2-4.8-4.5-4.8c0,0,0,0,0,0h0C118.6,55.3,118.6,55.3,118.6,55.4z"/>
<path class="st0" d="M199.2,139.1c2.1,2,6.2,1.3,6.5-2.2c0.6-5.3,8-7.4,8.6-1c0.6,6-4.5,11.6-9.9,12.4c-8.3,1.4-14.8-4.1-15.3-12.5
	c0-0.3,0-0.7,0.2-1c1-1.7,2.4-2.8,4.3-3.3c0.3-0.1,0.6,0,0.9,0.1l1.8,1.1c0.3,0.2,0.5,0.4,0.6,0.8
	C197.6,135.4,198,137.9,199.2,139.1z"/>
</svg>
