<?xml version="1.0" standalone="no"?>
<!DOCTYPE svg PUBLIC "-//W3C//DTD SVG 20010904//EN"
 "http://www.w3.org/TR/2001/REC-SVG-20010904/DTD/svg10.dtd">
<svg version="1.0" xmlns="http://www.w3.org/2000/svg"
 width="700.000000pt" height="700.000000pt" viewBox="0 0 700.000000 700.000000"
 preserveAspectRatio="xMidYMid meet">
<metadata>
Created by potrace 1.14, written by Peter Selinger 2001-2017
</metadata>
<g transform="translate(0.000000,700.000000) scale(0.100000,-0.100000)"
fill="#000000" stroke="none">
<path d="M3278 6996 c-1 -2 -42 -6 -89 -10 -47 -4 -95 -8 -105 -10 -10 -2 -41
-7 -69 -10 -145 -20 -323 -57 -475 -101 -131 -38 -370 -122 -385 -136 -5 -5
-15 -9 -21 -9 -21 0 -262 -120 -389 -193 -909 -526 -1540 -1444 -1701 -2477
-2 -14 -6 -40 -9 -57 -6 -35 -12 -82 -24 -213 -9 -86 -7 -540 2 -595 3 -16 8
-57 12 -90 3 -33 8 -71 10 -85 2 -14 6 -43 9 -65 4 -22 11 -62 16 -90 6 -27
12 -60 14 -71 11 -56 59 -246 77 -304 26 -80 77 -228 89 -255 5 -11 21 -49 36
-85 41 -101 165 -346 222 -438 29 -46 52 -86 52 -88 0 -3 4 -10 10 -17 5 -7
48 -66 95 -132 289 -408 695 -773 1130 -1015 330 -184 672 -309 1045 -384 69
-14 154 -28 190 -32 36 -3 68 -8 71 -9 15 -10 228 -20 414 -20 216 0 357 9
482 29 21 4 54 9 73 11 19 3 46 7 60 10 14 2 39 7 55 10 189 36 416 103 628
187 482 190 959 525 1307 917 36 41 70 79 76 85 6 6 48 61 94 121 150 197 277
405 383 628 26 53 47 99 47 102 0 2 11 28 24 57 57 127 151 421 182 573 61
295 78 462 79 750 0 187 -11 420 -20 435 -2 3 -6 32 -10 64 -3 33 -8 62 -10
65 -1 3 -6 29 -10 57 -15 119 -86 391 -145 559 -205 577 -556 1091 -1020 1489
-103 89 -228 185 -300 232 -25 16 -47 31 -50 35 -28 31 -371 217 -530 286
-132 57 -404 154 -470 168 -8 2 -42 10 -75 19 -76 19 -235 52 -300 62 -27 4
-57 9 -65 10 -8 2 -44 6 -80 9 -36 4 -76 9 -90 12 -27 5 -536 14 -542 9z
m-362 -2047 c173 -100 314 -186 314 -192 0 -5 -44 -87 -99 -181 -54 -94 -108
-187 -119 -206 -83 -146 -803 -1395 -845 -1465 -23 -38 -47 -79 -53 -90 -11
-20 -202 -354 -373 -650 -51 -88 -96 -163 -100 -167 -3 -4 -32 8 -63 27 -32
18 -76 45 -100 58 -152 85 -455 262 -466 272 -10 9 9 49 98 201 61 104 116
201 122 217 7 15 16 27 20 27 4 0 8 4 8 9 0 4 23 48 51 97 29 49 63 108 76
132 13 23 54 93 90 155 36 62 79 137 95 167 17 30 34 60 38 65 4 6 69 118 145
250 76 132 154 267 173 300 19 33 43 76 54 95 25 43 388 672 416 720 12 19 40
69 64 110 23 41 49 87 58 101 8 14 28 49 44 77 16 29 31 52 33 52 3 0 146 -81
319 -181z m1109 142 l210 -1 0 -1597 0 -1598 -372 -3 -372 -2 0 1599 0 1600
37 3 c20 2 93 2 162 1 69 -1 220 -2 335 -2z m1420 0 l31 -1 -1 -1597 0 -1598
-371 -3 -371 -2 0 1597 c0 879 1 1600 2 1603 2 4 522 4 710 1z"/>
</g>
</svg>
